# xmcd
#
# Track frame offsets: 
#        150
#        15837
#        38583
#        53829
#        69769
#        89557
#        114440
#        134775
#        150760
#        170350
#        194071
#        214789
#        241432
#        256896
#
# Disc length: 3571 seconds
#
# Revision: 1
# Processed by: cddbd v1.5.1PL0 Copyright (c) Steve Scherf et al.
# Submitted via: ExactAudioCopy v0.95a5
#
DISCID=b40df10e
DTITLE=Esteban Morgado - CuestArriba
DYEAR=2002
DGENRE=Tango
TTITLE0=Cuesta Arriba
TTITLE1=Contrabajeando
TTITLE2=Despedida
TTITLE3=La Casita De Mis Viejos
TTITLE4=Alas De Tango
TTITLE5=Cinema Paradiso
TTITLE6=Soledades
TTITLE7=El Choclo
TTITLE8=Garua
TTITLE9=El Ultimo Cafe
TTITLE10=El Motivo
TTITLE11=Adios Nonino
TTITLE12=Fugazzeta Y Domingo
TTITLE13=Morena
EXTD=
EXTT0=
EXTT1=
EXTT2=
EXTT3=
EXTT4=
EXTT5=
EXTT6=
EXTT7=
EXTT8=
EXTT9=
EXTT10=
EXTT11=
EXTT12=
EXTT13=
PLAYORDER=
